<?xml version="1.0" encoding="UTF-8" standalone="no"?>
<!DOCTYPE svg PUBLIC "-//W3C//DTD SVG 1.1//EN" "http://www.w3.org/Graphics/SVG/1.1/DTD/svg11.dtd">
<svg version="1.1" xmlns="http://www.w3.org/2000/svg" width="200" height="200" viewBox="-0.9 -0.9 1.8 1.8">
	<rect fill="#FFFFFF" x="-0.9" y="-0.9" width="1.8" height="1.8"/>
	<g style="stroke-width:0.1;stroke-linejoin:round;opacity:1">
		<polygon fill="#000000" stroke="#000000" points="-4.9165444344952E-17,-0.71734170954349 0.70405037145575,-0.41272706360467 6.3108540577985E-17,-0.021725090572532 -0.70405037145575,-0.41272706360467"/>
		<polygon fill="#000000" stroke="#000000" points="6.3108540577985E-17,-0.021725090572532 0.70405037145575,-0.41272706360467 0.62948028357061,0.36901272915735 5.5589468959362E-17,0.81107056444244"/>
		<polygon fill="#000000" stroke="#000000" points="-0.70405037145575,-0.41272706360467 6.3108540577985E-17,-0.021725090572532 5.5589468959362E-17,0.81107056444244 -0.62948028357061,0.36901272915735"/>
	</g>
	<g style="opacity:1;stroke-opacity:0.5;stroke-width:0;stroke-linejoin:round">
		<polygon fill="#FEFE00" stroke="#000000" points="-4.3345633484821E-17,-0.70762815225603 0.63664129333765,-0.43217873837519 5.8178714583793E-17,-0.078613124463143 -0.63664129333765,-0.43217873837519"/>
		<polygon fill="#EE0000" stroke="#000000" points="0.050224490710421,0.0080640913906478 0.68686578404807,-0.3455015225214 0.61943538542853,0.36139084327405 0.050224490710421,0.76112399220206"/>
		<polygon fill="#0000F2" stroke="#000000" points="-0.69281552510274,-0.34142791649058 -0.056174231765087,0.012137697421468 -0.056174231765087,0.76519759823288 -0.62538512648319,0.36546444930488"/>
	</g>
</svg>