<?xml version="1.0" encoding="UTF-8" standalone="no"?>
<!DOCTYPE svg PUBLIC "-//W3C//DTD SVG 1.1//EN" "http://www.w3.org/Graphics/SVG/1.1/DTD/svg11.dtd">
<svg version="1.1" xmlns="http://www.w3.org/2000/svg" width="180" height="180" viewBox="-0.9 -0.9 1.8 1.8">
	<rect fill="#FFFFFF" x="-0.9" y="-0.9" width="1.8" height="1.8"/>
	<g style="opacity:0.5;stroke-opacity:0.5;stroke-width:0;stroke-linejoin:round">
		<polygon fill="#00D800" stroke="#000000" points="0.72746262741201,-0.42598357936906 0.49837764429031,-0.52509955722051 0.48348849357945,-0.27765557726842 0.70327814822137,-0.17245069122671"/>
		<polygon fill="#00D800" stroke="#000000" points="0.46020172142869,-0.54244306526535 0.24863295772477,-0.63398047034352 0.24173709474118,-0.39244286530328 0.44531257071783,-0.29499908531325"/>
		<polygon fill="#00D800" stroke="#000000" points="0.21328056532191,-0.6500435599255 0.017293018809885,-0.73483959087671 0.017293018809885,-0.49901689840284 0.20638470233832,-0.40850595488526"/>
		<polygon fill="#00D800" stroke="#000000" points="0.69992308150895,-0.12978588494942 0.48013342686703,-0.23499077099113 0.46629381665024,-0.0049891879909123 0.67750877853733,0.10518973405386"/>
		<polygon fill="#00D800" stroke="#000000" points="0.44343172577151,-0.25330242045534 0.23985624979486,-0.35074620044536 0.23342915778083,-0.12562797867439 0.42959211555473,-0.023300837455117"/>
		<polygon fill="#00D800" stroke="#000000" points="0.20577624383977,-0.36775175211115 0.016684560311332,-0.45826269562874 0.016684560311332,-0.23791933589578 0.19934915182574,-0.14263353034018"/>
		<polygon fill="#00D800" stroke="#000000" points="0.67439305193247,0.14483528953866 0.46317809004538,0.034656367493887 0.45028082482858,0.248997043985 0.65356143547518,0.36321914818848"/>
		<polygon fill="#00D800" stroke="#000000" points="0.42784116029849,0.015550895054257 0.23167820252459,-0.086776246165015 0.22567365317064,0.123541805941 0.41494389508169,0.22989157154537"/>
		<polygon fill="#00D800" stroke="#000000" points="0.19878205547156,-0.10456371508472 0.016117463957153,-0.19984952064032 0.016117463957153,0.0064901638172832 0.19277750611761,0.1057543370213"/>
		<polygon fill="#FFA100" stroke="#000000" points="-0.016684560311333,-0.73433533388556 -0.21267210682336,-0.64953930293435 -0.20577624383977,-0.40800169789411 -0.016684560311333,-0.49851264141169"/>
		<polygon fill="#FFA100" stroke="#000000" points="-0.24792766763118,-0.633459319616 -0.45949643133511,-0.54192191453783 -0.44460728062425,-0.29447793458574 -0.24103180464759,-0.39192171457576"/>
		<polygon fill="#FFA100" stroke="#000000" points="-0.49755746824797,-0.52456230061549 -0.72664245136968,-0.42544632276404 -0.70245797217903,-0.17191343462168 -0.48266831753711,-0.27711832066339"/>
		<polygon fill="#FFA100" stroke="#000000" points="-0.016117463957153,-0.45784138427244 -0.20520914748559,-0.36733044075486 -0.19878205547156,-0.14221221898388 -0.016117463957153,-0.23749802453948"/>
		<polygon fill="#FFA100" stroke="#000000" points="-0.23920220407109,-0.35031531563102 -0.44277768004774,-0.25287153564099 -0.42893806983096,-0.022869952640772 -0.23277511205706,-0.12519709386004"/>
		<polygon fill="#FFA100" stroke="#000000" points="-0.47937683632984,-0.23455188546145 -0.69916649097176,-0.12934699941974 -0.67675218800014,0.10562861958354 -0.46553722611305,-0.0045503024612304"/>
		<polygon fill="#FFA100" stroke="#000000" points="-0.015587650778864,-0.19949848820075 -0.19825224229327,-0.10421268264515 -0.19224769293932,0.10610536946086 -0.015587650778864,0.0068411962568491"/>
		<polygon fill="#FFA100" stroke="#000000" points="-0.23107002171316,-0.086421308719271 -0.42723297948706,0.015905832500001 -0.41433571427026,0.23024650899111 -0.22506547235921,0.12389674338674"/>
		<polygon fill="#FFA100" stroke="#000000" points="-0.46247800023005,0.035013118860832 -0.67369296211713,0.1451920409056 -0.65286134565985,0.36357589955542 -0.44958073501324,0.24935379535195"/>
		<polygon fill="#FFFFFF" stroke="#000000" points="-0.636176882332,0.39256673314612 -0.46102463748658,0.51556887351897 -0.25670295251993,0.39256673314612 -0.4328962716854,0.27834462894264"/>
		<polygon fill="#FFFFFF" stroke="#000000" points="-0.4288285307438,0.53727513358476 -0.23967452102954,0.67011013136337 -0.034769880871119,0.53727513358476 -0.22450684577715,0.41427299321192"/>
		<polygon fill="#FFFFFF" stroke="#000000" points="-0.20490464015842,0.6935516015596 5.6512077508684E-17,0.83744761233615 0.20490464015842,0.6935516015596 1.7845789159345E-17,0.56071660378099"/>
		<polygon fill="#FFFFFF" stroke="#000000" points="-0.3982182503131,0.25818778702438 -0.22202493114764,0.37240989122786 -0.032287966241603,0.25818778702438 -0.20894800840206,0.15183802142001"/>
		<polygon fill="#FFFFFF" stroke="#000000" points="-0.18973696490604,0.39256673314612 1.1600784645829E-17,0.51556887351897 0.18973696490604,0.39256673314612 -1.0772707114213E-17,0.27834462894264"/>
		<polygon fill="#FFFFFF" stroke="#000000" points="0.034769880871119,0.53727513358476 0.23967452102954,0.67011013136337 0.4288285307438,0.53727513358476 0.22450684577715,0.41427299321192"/>
		<polygon fill="#FFFFFF" stroke="#000000" points="-0.17666004216046,0.13307041572512 -1.7017711627729E-17,0.23942018132949 0.17666004216046,0.13307041572512 -4.6464890614227E-17,0.033806242521109"/>
		<polygon fill="#FFFFFF" stroke="#000000" points="0.032287966241603,0.25818778702438 0.22202493114764,0.37240989122786 0.3982182503131,0.25818778702438 0.20894800840206,0.15183802142001"/>
		<polygon fill="#FFFFFF" stroke="#000000" points="0.25670295251993,0.39256673314612 0.46102463748658,0.51556887351897 0.636176882332,0.39256673314612 0.4328962716854,0.27834462894264"/>
	</g>
	<g style="stroke-width:0.1;stroke-linejoin:round;opacity:0.12">
		<polygon fill="#000000" stroke="#000000" points="0.70405037145575,-0.41272706360467 -4.9165444344952E-17,-0.71734170954349 -4.447846227608E-17,0.015311693356 0.62948028357061,0.36901272915735"/>
		<polygon fill="#000000" stroke="#000000" points="-4.9165444344952E-17,-0.71734170954349 -0.70405037145575,-0.41272706360467 -0.62948028357061,0.36901272915735 -4.447846227608E-17,0.015311693356"/>
		<polygon fill="#000000" stroke="#000000" points="-0.62948028357061,0.36901272915735 5.5589468959362E-17,0.81107056444244 0.62948028357061,0.36901272915735 -4.447846227608E-17,0.015311693356"/>
	</g>
	<g style="stroke-width:0.1;stroke-linejoin:round;opacity:0.12">
		<polygon fill="#000000" stroke="#000000" points="-4.9165444344952E-17,-0.71734170954349 0.70405037145575,-0.41272706360467 6.3108540577985E-17,-0.021725090572532 -0.70405037145575,-0.41272706360467"/>
		<polygon fill="#000000" stroke="#000000" points="6.3108540577985E-17,-0.021725090572532 0.70405037145575,-0.41272706360467 0.62948028357061,0.36901272915735 5.5589468959362E-17,0.81107056444244"/>
		<polygon fill="#000000" stroke="#000000" points="-0.70405037145575,-0.41272706360467 6.3108540577985E-17,-0.021725090572532 5.5589468959362E-17,0.81107056444244 -0.62948028357061,0.36901272915735"/>
	</g>
	<g style="opacity:0.5;stroke-opacity:0.5;stroke-width:0;stroke-linejoin:round">
		<polygon fill="#FEFE00" stroke="#000000" points="-4.9439549272153E-17,-0.74757064564692 0.19598754651203,-0.66277461469571 -1.6979580126642E-17,-0.57123720961754 -0.19598754651203,-0.66277461469571"/>
		<polygon fill="#FEFE00" stroke="#000000" points="0.23200530924361,-0.64654708450724 0.44357407294753,-0.55500967942906 0.24823152717746,-0.45589370157761 0.03601776273158,-0.55500967942906"/>
		<polygon fill="#FEFE00" stroke="#000000" points="0.48258385553552,-0.53743199405155 0.71166883865722,-0.4383160162001 0.51778341539206,-0.3306396536664 0.28724130976545,-0.43831601620009"/>
		<polygon fill="#FEFE00" stroke="#000000" points="-0.23200530924361,-0.64654708450724 -0.03601776273158,-0.55500967942906 -0.24823152717746,-0.45589370157761 -0.44357407294753,-0.55500967942906"/>
		<polygon fill="#FEFE00" stroke="#000000" points="-1.1906711768916E-17,-0.53743199405155 0.21221376444588,-0.43831601620009 1.3125827139793E-17,-0.3306396536664 -0.21221376444588,-0.43831601620009"/>
		<polygon fill="#FEFE00" stroke="#000000" points="0.25135344771691,-0.4192120352454 0.48189555334352,-0.31153567271171 0.27050899589682,-0.1941398664099 0.03913968327103,-0.31153567271171"/>
		<polygon fill="#FEFE00" stroke="#000000" points="-0.48258385553552,-0.53743199405155 -0.28724130976545,-0.43831601620009 -0.51778341539206,-0.3306396536664 -0.71166883865722,-0.43831601620009"/>
		<polygon fill="#FEFE00" stroke="#000000" points="-0.25135344771691,-0.4192120352454 -0.03913968327103,-0.31153567271171 -0.27050899589682,-0.1941398664099 -0.48189555334352,-0.31153567271171"/>
		<polygon fill="#FEFE00" stroke="#000000" points="1.9219742927126E-17,-0.29069716027551 0.23136931262579,-0.1733013539737 6.3251582941518E-17,-0.044807908897155 -0.23136931262579,-0.1733013539737"/>
		<polygon fill="#EE0000" stroke="#000000" points="0.019572311898468,-0.01096266104553 0.25094162452426,-0.13945610612208 0.24139184674777,0.12672756322786 0.019572311898468,0.26171620101574"/>
		<polygon fill="#EE0000" stroke="#000000" points="0.28930534489087,-0.16171652284677 0.50069190233757,-0.27911232914857 0.48317508531013,-0.019324131300046 0.27975556711438,0.10446714650317"/>
		<polygon fill="#EE0000" stroke="#000000" points="0.53586287162127,-0.29952357725519 0.72974829488643,-0.40719993978888 0.70556381569579,-0.15366705164652 0.51834605459384,-0.039735379406663"/>
		<polygon fill="#EE0000" stroke="#000000" points="0.018796486168384,0.30740091161998 0.24061602101769,0.1724122738321 0.23182332941007,0.41749346528561 0.018796486168384,0.55752511994163"/>
		<polygon fill="#EE0000" stroke="#000000" points="0.27748498154717,0.14913168479738 0.48090449974292,0.025340406994164 0.46472097442439,0.26535483831193 0.26869228993956,0.39421287625089"/>
		<polygon fill="#EE0000" stroke="#000000" points="0.51482272047627,0.0039202514920256 0.70204048157822,-0.11001142074783 0.6796261786066,0.12496419825545 0.49863919515774,0.24393468280979"/>
		<polygon fill="#EE0000" stroke="#000000" points="0.018079821190449,0.59957070958542 0.23110666443214,0.4595390549294 0.22298446134887,0.68593152923737 0.018079821190449,0.82982754001392"/>
		<polygon fill="#EE0000" stroke="#000000" points="0.26659321028119,0.43546258559693 0.46262189476603,0.30660454765797 0.44762501691219,0.52902006212629 0.25847100719792,0.6618550599049"/>
		<polygon fill="#EE0000" stroke="#000000" points="0.49537315323635,0.28438159074811 0.67636013668521,0.16541110619376 0.65552852022793,0.38379496484358 0.4803762753825,0.50679710521643"/>
		<polygon fill="#0000F2" stroke="#000000" points="-0.73033661801848,-0.40664800069716 -0.53645119475332,-0.29897163816347 -0.51893437772588,-0.039183440314942 -0.70615213882784,-0.1531151125548"/>
		<polygon fill="#0000F2" stroke="#000000" points="-0.50139487638912,-0.27854802283962 -0.29000831894242,-0.16115221653782 -0.28045854116593,0.10503145281212 -0.48387805936169,-0.018759824991097"/>
		<polygon fill="#0000F2" stroke="#000000" points="-0.25178425197513,-0.13888300088285 -0.020414939349334,-0.010389555806295 -0.020414939349334,0.26228930625497 -0.24223447419864,0.12730066846709"/>
		<polygon fill="#0000F2" stroke="#000000" points="-0.70259025607703,-0.10956681966126 -0.51537249497507,0.0043648525785978 -0.49918896965654,0.24437928389636 -0.68017595310541,0.12540879934202"/>
		<polygon fill="#0000F2" stroke="#000000" points="-0.48155663212918,0.025787474064964 -0.27813711393343,0.14957875186818 -0.26934442232581,0.39465994332169 -0.46537310681065,0.26580190538273"/>
		<polygon fill="#0000F2" stroke="#000000" points="-0.24139184674777,0.17285724590871 -0.019572311898468,0.30784588369658 -0.019572311898468,0.55797009201823 -0.23259915514016,0.41793843736221"/>
		<polygon fill="#0000F2" stroke="#000000" points="-0.67687496656198,0.16576684053069 -0.49588798311312,0.28473732508503 -0.48089110525928,0.50715283955335 -0.6560433501047,0.38415069918051"/>
		<polygon fill="#0000F2" stroke="#000000" points="-0.46322848371637,0.30695545587912 -0.26719979923154,0.43581349381808 -0.25907759614827,0.66220596812605 -0.44823160586253,0.52937097034744"/>
		<polygon fill="#0000F2" stroke="#000000" points="-0.23182332941007,0.45988002752827 -0.018796486168384,0.59991168218429 -0.018796486168384,0.83016851261279 -0.2237011263268,0.68627250183624"/>
	</g>
</svg>