<?xml version="1.0" encoding="utf-8"?>
<!-- Generator: Adobe Illustrator 28.0.0, SVG Export Plug-In . SVG Version: 6.00 Build 0)  -->
<svg version="1.1" id="图层_1" xmlns="http://www.w3.org/2000/svg" xmlns:xlink="http://www.w3.org/1999/xlink" x="0px" y="0px"
	 viewBox="0 0 354.33 354.33" style="enable-background:new 0 0 354.33 354.33;" xml:space="preserve">
<style type="text/css">
	.st0{stroke:#FFFFFF;stroke-width:10;stroke-miterlimit:10;}
	.st1{fill:none;stroke:#FFFFFF;stroke-width:20;stroke-miterlimit:10;}
</style>
<path class="st0" d="M304.71,347.24H49.62c-23.39,0-42.53-19.14-42.53-42.53V49.62c0-23.39,19.14-42.53,42.53-42.53h255.1
	c23.39,0,42.53,19.14,42.53,42.53v255.1C347.24,328.11,328.11,347.24,304.71,347.24z"/>
<line class="st1" x1="317.48" y1="120.47" x2="347.24" y2="120.47"/>
<line class="st1" x1="7.09" y1="120.47" x2="36.85" y2="120.47"/>
<line class="st1" x1="7.09" y1="233.86" x2="347.24" y2="233.86"/>
<line class="st1" x1="120.47" y1="204.09" x2="120.47" y2="347.24"/>
<line class="st1" x1="120.47" y1="7.09" x2="120.47" y2="63.78"/>
<line class="st1" x1="233.86" y1="204.09" x2="233.86" y2="347.24"/>
<line class="st1" x1="233.86" y1="7.09" x2="233.86" y2="63.78"/>
<path class="st1" d="M248.03,63.78H106.3c-39.14,0-70.87,31.73-70.87,70.87s31.73,70.87,70.87,70.87c12.91,0,25.01-3.45,35.44-9.48
	l-0.01-0.02c10.42-6.03,22.53-9.48,35.44-9.48c12.91,0,25.01,3.45,35.44,9.48l-0.01,0.02c10.42,6.03,22.53,9.48,35.44,9.48
	c39.14,0,70.87-31.73,70.87-70.87S287.17,63.78,248.03,63.78z"/>
</svg>
